# xmcd
#
# Track frame offsets: 
#        150
#        15239
#        33826
#        57422
#        74875
#        94598
#        114104
#        131158
#        149834
#        172063
#        195373
#        213283
#        234580
#        253152
#
# Disc length: 3588 seconds
#
# Revision: 0
# Processed by: cddbd v1.5.2PL0 Copyright (c) Steve Scherf et al.
# Submitted via: ExactAudioCopyFreeDBPlugin 1.0
#
DISCID=cb0e020e
DTITLE=叮咚 江智民 潘绍鳞 - 痴情男人泪 蓝光CD
DYEAR=2009
DGENRE=Acid
TTITLE0=思念谁
TTITLE1=梦中的小屋
TTITLE2=女人心
TTITLE3=忘了怎么哭
TTITLE4=爱上她是为了忘了你
TTITLE5=心碎
TTITLE6=我可以抱你吗爱人
TTITLE7=沉默是金
TTITLE8=为爱伤心为你痛
TTITLE9=女人花
TTITLE10=再见了最爱的人
TTITLE11=伤了我的心
TTITLE12=北极星的眼泪
TTITLE13=最后一次的温柔
EXTD=
EXTT0=
EXTT1=
EXTT2=
EXTT3=
EXTT4=
EXTT5=
EXTT6=
EXTT7=
EXTT8=
EXTT9=
EXTT10=
EXTT11=
EXTT12=
EXTT13=
PLAYORDER=
